<?xml version="1.0" encoding="utf-8"?><!-- Uploaded to: SVG Repo, www.svgrepo.com, Generator: SVG Repo Mixer Tools -->
<svg width="800px" height="800px" viewBox="0 0 24 24" fill="none" xmlns="http://www.w3.org/2000/svg">
<path fill-rule="evenodd" clip-rule="evenodd" d="M23 12C23 18.0751 18.0751 23 12 23C5.92487 23 1 18.0751 1 12C1 5.92487 5.92487 1 12 1C18.0751 1 23 5.92487 23 12ZM3.00683 12C3.00683 16.9668 7.03321 20.9932 12 20.9932C14.1231 20.9932 16.0744 20.2574 17.6128 19.027L15.5374 16.9515C15.4427 17.0564 15.3268 17.1692 15.1872 17.2809C14.7101 17.6625 13.9929 18 13 17.9999L10.9998 17.9999C9.34275 17.9999 8 16.6566 8 14.9999V9.41418L4.97297 6.38716C3.74256 7.92557 3.00683 9.87687 3.00683 12ZM6.38719 4.97295C7.9256 3.74255 9.87688 3.00683 12 3.00683C16.9668 3.00683 20.9932 7.03321 20.9932 12C20.9932 14.1231 20.2575 16.0744 19.0271 17.6128L10.0633 8.64904C10.2054 8.26981 10.5711 8 10.9997 8H13C13.5071 8 13.7898 8.16249 13.9378 8.28087C14.0486 8.36952 14.1077 8.45538 14.119 8.4731C14.3737 8.94812 14.962 9.13706 15.4472 8.89443C15.9309 8.65259 16.1361 8.03372 15.8934 7.55064C15.8387 7.44229 15.7712 7.34071 15.6984 7.24375C15.5859 7.09376 15.4194 6.90487 15.1872 6.71913C14.7102 6.33751 13.9929 6 13 6H10.9997C10.0219 6 9.15353 6.46778 8.60594 7.1917L6.38719 4.97295ZM10 11.4142V14.9999C10 15.5524 10.4476 15.9999 10.9998 15.9999L13 15.9999C13.5071 16 13.7899 15.8375 13.9378 15.7191C14.0421 15.6357 14.1006 15.5547 14.1165 15.5307L10 11.4142Z" fill="#F5DEB3"/>
</svg>