<?xml version="1.0" ?>

<svg fill="#FFFFFF" width="800px" height="800px" viewBox="0 0 32 32" id="Camada_1" version="1.1" xml:space="preserve" xmlns="http://www.w3.org/2000/svg" xmlns:xlink="http://www.w3.org/1999/xlink">

<g>

<path d="M26.6,16c-0.2,4-1.9,7.2-5.5,9.2c-1.8,1-3.7,1.4-5.8,1.3c-1.7-0.1-3.3-0.6-4.7-1.5C10.4,25,10.3,25,10.1,25   c-1.3,0.3-2.5,0.6-3.8,0.9c-0.2,0.1-0.3,0-0.2-0.2c0.3-1.3,0.6-2.5,0.9-3.8c0-0.2,0-0.3-0.1-0.5c-3.8-6.3,0-14.6,7.3-15.8   c5.7-1,11.2,2.8,12.2,8.6C26.5,14.8,26.6,15.4,26.6,16L26.6,16z"/>

<g>

<path d="M4.6,28.6c-0.8,0-1.4-0.7-1.2-1.4c0.2-0.8,0.4-1.6,0.6-2.5c0-0.1,0.1-0.1,0.2-0.1c0.3,0.1,0.6,0.1,0.9,0.2    c0.2,0,0.1,0.1,0.1,0.2c-0.1,0.7-0.3,1.3-0.5,2c-0.1,0.3-0.1,0.3,0.3,0.2c0.7-0.1,1.3-0.3,2-0.5c0.2,0,0.2,0,0.3,0.2    c0,0.3,0.1,0.5,0.2,0.8c0,0.1,0,0.2-0.1,0.2C6.4,28.2,5.6,28.4,4.6,28.6C4.7,28.6,4.7,28.6,4.6,28.6L4.6,28.6z"/>

<path d="M9.7,27.4c-0.3,0.1-0.6,0.1-1,0.2c-0.2,0.1-0.3,0-0.3-0.2c0-0.3-0.1-0.5-0.2-0.8c0-0.1,0-0.2,0.1-0.2    c0.5-0.1,1-0.2,1.5-0.3c0.1,0,0.2,0,0.2,0c0.9,0.5,1.9,0.9,2.9,1.2c0.1,0,0.2,0.1,0.1,0.2c-0.1,0.2-0.1,0.5-0.2,0.7    c0,0.2-0.1,0.2-0.3,0.2c-0.9-0.2-1.8-0.6-2.6-1C9.9,27.5,9.9,27.4,9.7,27.4L9.7,27.4z"/>

<path d="M5.9,22.1c-0.1,0.4-0.2,0.8-0.3,1.3c-0.1,0.5,0,0.4-0.5,0.3c-0.2,0-0.4-0.1-0.6-0.1c-0.1,0-0.2-0.1-0.1-0.2    c0.1-0.3,0.1-0.6,0.2-0.9c0-0.1,0-0.2,0-0.4c-0.4-0.8-0.8-1.7-1-2.6c-0.1-0.3-0.1-0.3,0.2-0.3c0.2-0.1,0.5-0.1,0.7-0.2    c0.1,0,0.2,0,0.2,0.1c0.3,1,0.7,2,1.2,2.9C5.8,22,5.9,22,5.9,22.1z"/>

<path d="M26.4,8.3c0,0.1-0.1,0.1-0.1,0.1c-0.2,0.2-0.5,0.3-0.7,0.5c-0.1,0.1-0.2,0.1-0.2,0C24.7,8,24,7.3,23.1,6.6    c-0.1-0.1-0.1-0.1,0-0.2c0.2-0.2,0.4-0.5,0.5-0.7c0.1-0.1,0.1-0.1,0.2,0C24.8,6.4,25.6,7.2,26.4,8.3C26.4,8.2,26.4,8.2,26.4,8.3    L26.4,8.3z"/>

<path d="M19.2,3.4c0,0,0.1,0,0.1,0c1.1,0.3,2.2,0.7,3.2,1.3c0.2,0.1,0.2,0.2,0.1,0.3c-0.1,0.2-0.3,0.5-0.4,0.7    c-0.1,0.1-0.1,0.1-0.2,0.1c-0.9-0.5-1.9-1-3-1.2c-0.1,0-0.2-0.1-0.1-0.2c0.1-0.3,0.1-0.6,0.2-0.9C19.1,3.5,19.1,3.4,19.2,3.4z"/>

<path d="M6.5,9C6.5,9,6.4,8.9,6.5,9C6.2,8.7,5.9,8.6,5.7,8.4c-0.1-0.1-0.1-0.2,0-0.3C6,7.7,6.4,7.2,6.7,6.8C7.2,6.4,7.6,6,8.1,5.6    c0.1-0.1,0.2-0.1,0.3,0c0.2,0.2,0.3,0.5,0.5,0.7C9,6.5,9,6.5,8.9,6.6C8,7.3,7.3,8,6.6,8.9C6.6,8.9,6.6,9,6.5,9L6.5,9z"/>

<path d="M27.6,18.9c0.3,0.1,0.6,0.1,0.9,0.2c0.1,0,0.1,0.1,0.1,0.2c-0.2,0.8-0.5,1.5-0.8,2.2c-0.2,0.3-0.3,0.7-0.5,1    c-0.1,0.1-0.1,0.1-0.3,0.1c-0.2-0.1-0.5-0.3-0.7-0.4c-0.1-0.1-0.1-0.1-0.1-0.2c0.5-0.9,1-1.9,1.2-3C27.4,18.9,27.5,18.8,27.6,18.9    L27.6,18.9z"/>

<path d="M4.4,13.1c-0.3-0.1-0.6-0.2-0.9-0.2c-0.1,0-0.1-0.1-0.1-0.2c0.2-0.9,0.6-1.8,1-2.6c0.1-0.2,0.2-0.4,0.3-0.6    C4.9,9.3,4.9,9.3,5,9.4c0.3,0.2,0.5,0.3,0.8,0.5c0.1,0.1,0.1,0.1,0,0.2c-0.5,0.9-1,1.9-1.2,3C4.6,13.1,4.6,13.2,4.4,13.1L4.4,13.1    z"/>

<path d="M3,16c0-0.6,0-1.1,0.1-1.7c0-0.2,0.1-0.2,0.3-0.2c0.2,0,0.5,0.1,0.8,0.1c0.1,0,0.2,0.1,0.2,0.2c-0.1,1.1-0.1,2.1,0,3.2    c0,0.1,0,0.2-0.1,0.2c-0.3,0-0.6,0.1-0.9,0.1c-0.2,0-0.2-0.1-0.2-0.2C3,17.2,3,16.6,3,16z"/>

<path d="M28.6,12.8c0,0.1,0,0.1-0.1,0.1c-0.3,0.1-0.6,0.1-0.9,0.2c-0.2,0-0.2-0.1-0.2-0.2c-0.2-0.9-0.6-1.7-1-2.5    c-0.1-0.1-0.1-0.2-0.2-0.4c-0.1-0.1,0-0.1,0-0.2c0.3-0.2,0.5-0.3,0.8-0.5c0.1,0,0.1,0,0.2,0C27.8,10.4,28.3,11.6,28.6,12.8    L28.6,12.8L28.6,12.8z"/>

<path d="M26.4,23.7c0,0,0,0.1-0.1,0.1c-0.7,0.9-1.6,1.8-2.5,2.5c-0.1,0.1-0.2,0.1-0.2,0c-0.2-0.2-0.3-0.5-0.5-0.7    c-0.1-0.1-0.1-0.2,0-0.3c0.8-0.6,1.6-1.4,2.2-2.2c0.1-0.1,0.1-0.1,0.3,0c0.2,0.2,0.5,0.3,0.7,0.5C26.4,23.7,26.4,23.7,26.4,23.7    L26.4,23.7z"/>

<path d="M16,3c0.5,0,1.1,0,1.7,0.1c0.2,0,0.2,0.1,0.2,0.3c0,0.2-0.1,0.5-0.1,0.7c0,0.1-0.1,0.2-0.2,0.2c-1-0.1-2.1-0.1-3.1,0    c-0.2,0-0.2,0-0.2-0.2c0-0.3-0.1-0.5-0.1-0.8c0-0.1,0-0.2,0.2-0.2C14.8,3,15.4,3,16,3z"/>

<path d="M16,29c-0.6,0-1.2,0-1.8-0.1c-0.2,0-0.2-0.1-0.2-0.3c0-0.2,0.1-0.5,0.1-0.8c0-0.1,0.1-0.2,0.2-0.2c1.1,0.1,2.1,0.1,3.2,0    c0.1,0,0.2,0,0.2,0.2c0,0.3,0.1,0.6,0.1,0.8c0,0.2-0.1,0.2-0.2,0.2C17.2,29,16.6,29,16,29L16,29z"/>

<path d="M12.8,3.4c0.1,0,0.1,0,0.1,0.1c0.1,0.3,0.1,0.6,0.2,0.9c0,0.2-0.1,0.2-0.2,0.2c-0.9,0.2-1.8,0.6-2.6,1    C10,5.8,9.8,5.8,9.6,5.5C9.5,5.3,9.5,5.2,9.4,5.1C9.3,4.9,9.3,4.9,9.5,4.8c0.8-0.5,1.7-0.9,2.6-1.2C12.3,3.5,12.5,3.5,12.8,3.4    L12.8,3.4z"/>

<path d="M29,16c0,0.6,0,1.1-0.1,1.7c0,0.2-0.1,0.2-0.3,0.2c-0.2,0-0.5-0.1-0.7-0.1c-0.3,0-0.3,0-0.2-0.3c0.1-0.9,0.1-1.7,0-2.6    c0-0.1,0-0.3,0-0.5c0-0.1,0-0.2,0.2-0.2c0.3,0,0.5-0.1,0.8-0.1c0.2,0,0.2,0,0.2,0.2C29,14.8,29,15.4,29,16z"/>

<path d="M19.2,28.6c-0.1,0-0.1,0-0.1-0.1c-0.1-0.3-0.1-0.6-0.2-0.9c0-0.1,0.1-0.2,0.2-0.2c0.9-0.2,1.7-0.6,2.5-1    c0.1-0.1,0.2-0.1,0.4-0.2c0.1-0.1,0.1,0,0.2,0c0.2,0.3,0.3,0.5,0.5,0.8c0,0.1,0,0.1,0,0.2C21.6,27.8,20.5,28.3,19.2,28.6    L19.2,28.6L19.2,28.6z"/>

</g>

</g>

</svg>